<?xml version="1.0" encoding="UTF-8"?>
<svg width="700pt" height="700pt" version="1.1" viewBox="0 0 700 700" xmlns="http://www.w3.org/2000/svg">
 <path d="m559.61 52.328c-4.5352 0.14453-8.8359 2.043-11.996 5.2969l-66.273 66.273c-35.555-29.945-81.391-48.055-131.39-48.055-112.55 0-204.12 91.535-204.12 204.09 0 49.988 18.152 95.801 48.09 131.35l-66.309 66.309c-3.4023 3.25-5.3516 7.7305-5.4141 12.434-0.058594 4.7031 1.7734 9.2344 5.0898 12.566 3.3164 3.3359 7.8359 5.1953 12.539 5.1602s9.1953-1.9609 12.461-5.3438l66.379-66.344c35.523 29.965 81.297 48.125 131.29 48.125 112.55 0 204.22-91.707 204.22-204.26 0-49.973-18.109-95.73-48.055-131.25l66.273-66.273c3.4141-3.3008 5.3438-7.8438 5.3398-12.594 0-4.75-1.9336-9.293-5.3477-12.59-3.418-3.2969-8.0312-5.0664-12.777-4.8945zm-209.66 58.516c40.508 0 77.578 14.16 106.68 37.77l-238.03 237.99c-23.59-29.09-37.734-66.184-37.734-106.68 0-93.637 75.453-169.09 169.09-169.09zm131.46 62.516c23.602 29.059 37.77 66.098 37.77 106.57 0 93.637-75.59 169.22-169.22 169.22-40.492 0-77.543-14.184-106.61-37.801z"/>
</svg>
